Coordinates
version=1
nRows=11
nColumns=40
inDegrees=yes

Units are S.I. units (second, meters, Newtons, ...)
If the header above contains a line with 'inDegrees', this indicates whether rotational values are in degrees (yes) or radians (no).

endheader
time	pelvis_tilt	pelvis_list	pelvis_rotation	pelvis_tx	pelvis_ty	pelvis_tz	hip_flexion_r	hip_adduction_r	hip_rotation_r	knee_angle_r	knee_angle_r_beta	ankle_angle_r	subtalar_angle_r	mtp_angle_r	hip_flexion_l	hip_adduction_l	hip_rotation_l	knee_angle_l	knee_angle_l_beta	ankle_angle_l	subtalar_angle_l	mtp_angle_l	lumbar_extension	lumbar_bending	lumbar_rotation	arm_flex_r	arm_add_r	arm_rot_r	elbow_flex_r	pro_sup_r	wrist_flex_r	wrist_dev_r	arm_flex_l	arm_add_l	arm_rot_l	elbow_flex_l	pro_sup_l	wrist_flex_l	wrist_dev_l
      5.00000000	     89.87778833	     61.99335210	     89.88310621	      0.33293052	      0.94376781	      0.60452730	     87.03304400	    -44.71240452	      1.78639104	     57.97910569	      1.01192629	     -7.50529035	      0.00000000	      0.00000000	     81.90497573	    -49.85887236	     -4.31305635	     55.00156309	      0.95995837	     -6.21369307	      0.00000000	      0.00000000	    -39.55163902	     -8.82695666	     -0.33069459	      0.00000000	    -16.66421135	      0.00000000	     75.34934517	     45.01565931	      0.00000000	      0.00000000	      0.00000000	    -16.66421135	      0.00000000	     75.34934517	     45.01565931	      0.00000000	      0.00000000
      5.00500000	     89.87591678	     61.99987037	     89.88173845	      0.33272923	      0.94389287	      0.60531218	     86.87243323	    -44.74841492	      1.59095273	     57.85019571	      1.00967639	     -7.57232232	      0.00000000	      0.00000000	     81.69599826	    -49.85798957	     -4.51363432	     54.82475880	      0.95687255	     -6.49847713	      0.00000000	      0.00000000	    -39.64805506	     -8.85411214	     -0.41107922	      0.00000000	    -16.65742728	      0.00000000	     75.34656396	     45.01531643	      0.00000000	      0.00000000	      0.00000000	    -16.65742728	      0.00000000	     75.34656396	     45.01531643	      0.00000000	      0.00000000
      5.01000000	     89.87116085	     61.82077360	     89.87621576	      0.33264620	      0.94398074	      0.60567841	     86.92735113	    -44.75140648	      1.46438797	     57.73750831	      1.00770962	     -7.58356994	      0.00000000	      0.00000000	     81.74384342	    -49.85211698	     -4.64345738	     54.70273713	      0.95474287	     -6.45531675	      0.00000000	      0.00000000	    -39.50275427	     -8.89607539	     -0.35109238	      0.00000000	    -16.65411678	      0.00000000	     75.34521170	     45.01515192	      0.00000000	      0.00000000	      0.00000000	    -16.65411678	      0.00000000	     75.34521170	     45.01515192	      0.00000000	      0.00000000
      5.01500000	     89.87074780	     62.03718272	     89.87631135	      0.33235432	      0.94401244	      0.60691187	     86.49201661	    -44.82154020	      1.17812434	     57.56571441	      1.00471125	     -7.65855755	      0.00000000	      0.00000000	     81.28045305	    -49.85319147	     -4.88797445	     54.50545950	      0.95129973	     -6.65283710	      0.00000000	      0.00000000	    -39.86657312	     -8.89678454	     -0.39546899	      0.00000000	    -16.64665835	      0.00000000	     75.34217202	     45.01478508	      0.00000000	      0.00000000	      0.00000000	    -16.64665835	      0.00000000	     75.34217202	     45.01478508	      0.00000000	      0.00000000
      5.02000000	     89.86436297	     61.86028946	     89.86848256	      0.33227000	      0.94402796	      0.60729640	     86.50244272	    -44.83196698	      1.01282433	     57.39833885	      1.00179000	     -7.62736452	      0.00000000	      0.00000000	     81.34294060	    -49.84519451	     -5.00149166	     54.39523620	      0.94937597	     -6.54282121	      0.00000000	      0.00000000	    -39.69716564	     -8.92851417	     -0.34479338	      0.00000000	    -16.64325792	      0.00000000	     75.34079167	     45.01462089	      0.00000000	      0.00000000	      0.00000000	    -16.64325792	      0.00000000	     75.34079167	     45.01462089	      0.00000000	      0.00000000
      5.02500000	     89.86530201	     62.13734394	     89.86987080	      0.33190934	      0.94404242	      0.60866441	     85.99014553	    -44.90586917	      0.70277105	     57.22227390	      0.99871708	     -7.67631031	      0.00000000	      0.00000000	     80.79157667	    -49.84740257	     -5.27396630	     54.19529792	      0.94588639	     -6.78424352	      0.00000000	      0.00000000	    -40.08523202	     -8.94552326	     -0.50265899	      0.00000000	    -16.63566397	      0.00000000	     75.33771592	     45.01425793	      0.00000000	      0.00000000	      0.00000000	    -16.63566397	      0.00000000	     75.33771592	     45.01425793	      0.00000000	      0.00000000
      5.03000000	     89.86224147	     62.17086272	     89.86644493	      0.33167059	      0.94401608	      0.60942673	     85.77527248	    -44.94578341	      0.49610972	     57.07283666	      0.99610891	     -7.70735167	      0.00000000	      0.00000000	     80.59121753	    -49.84402879	     -5.43468700	     54.07205154	      0.94373533	     -6.82622922	      0.00000000	      0.00000000	    -40.20263631	     -8.95138619	     -0.41821382	      0.00000000	    -16.62878161	      0.00000000	     75.33494048	     45.01393553	      0.00000000	      0.00000000	      0.00000000	    -16.62878161	      0.00000000	     75.33494048	     45.01393553	      0.00000000	      0.00000000
      5.03500000	     89.85999349	     62.26346762	     89.86419314	      0.33140973	      0.94401069	      0.61034222	     85.45636725	    -45.00515397	      0.22125201	     56.89412961	      0.99298989	     -7.69020331	      0.00000000	      0.00000000	     80.29894994	    -49.84173695	     -5.62818364	     53.91959916	      0.94107454	     -6.86987570	      0.00000000	      0.00000000	    -40.35801341	     -8.96409910	     -0.43816211	      0.00000000	    -16.62140006	      0.00000000	     75.33197636	     45.01359647	      0.00000000	      0.00000000	      0.00000000	    -16.62140006	      0.00000000	     75.33197636	     45.01359647	      0.00000000	      0.00000000
      5.04000000	     89.85502831	     62.11791984	     89.85695849	      0.33125362	      0.94396633	      0.61067869	     85.46600337	    -45.03394520	      0.07756468	     56.76168109	      0.99067822	     -7.71122495	      0.00000000	      0.00000000	     80.33342990	    -49.83458624	     -5.73054938	     53.83755928	      0.93964267	     -6.83262825	      0.00000000	      0.00000000	    -40.18541134	     -8.98961301	     -0.41203838	      0.00000000	    -16.61785804	      0.00000000	     75.33055963	     45.01343672	      0.00000000	      0.00000000	      0.00000000	    -16.61785804	      0.00000000	     75.33055963	     45.01343672	      0.00000000	      0.00000000
      5.04500000	     89.85565468	     62.38257939	     89.85814061	      0.33091150	      0.94396228	      0.61196737	     84.98010456	    -45.09842126	     -0.19394187	     56.59322636	      0.98773813	     -7.82008399	      0.00000000	      0.00000000	     79.81368101	    -49.83678062	     -5.97862726	     53.63420824	      0.93609353	     -7.00032649	      0.00000000	      0.00000000	    -40.55890581	     -8.99409589	     -0.50542163	      0.00000000	    -16.61100496	      0.00000000	     75.32782484	     45.01313086	      0.00000000	      0.00000000	      0.00000000	    -16.61100496	      0.00000000	     75.32782484	     45.01313086	      0.00000000	      0.00000000
      5.05000000	     89.84960521	     62.24104195	     89.85155685	      0.33074588	      0.94393046	      0.61229256	     85.00400253	    -45.10702265	     -0.31378496	     56.47191681	      0.98562088	     -7.84035037	      0.00000000	      0.00000000	     79.83962196	    -49.83133792	     -6.07356369	     53.55070705	      0.93463615	     -6.92686864	      0.00000000	      0.00000000	    -40.37915914	     -9.02216361	     -0.46255111	      0.00000000	    -16.60755279	      0.00000000	     75.32645253	     45.01297953	      0.00000000	      0.00000000	      0.00000000	    -16.60755279	      0.00000000	     75.32645253	     45.01297953	      0.00000000	      0.00000000
